<svg xmlns="http://www.w3.org/2000/svg" viewBox="-10 -50 775 300">
  <!-- Icon (ROX symbol) - 200x200 -->
  <g fill="#FFFFFF" fill-rule="evenodd">
    <path d="M100 100V0C155.225 0 200 44.775 200 100H100ZM100 0C44.775 0 0 44.775 0 100C55.225 100 100 55.225 100 0ZM100 200C155.225 200 200 155.225 200 100C144.775 100 100 144.775 100 200ZM0 100C0 155.225 44.775 200 100 200V100H0Z"/>
  </g>
  <!-- Text (ROX) - scaled to match icon height -->
  <g transform="translate(220, -4) scale(9.5)" fill="#FFFFFF">
    <path d="M19.1415 20.594C9.1245 21.9065 10.304 12.9605 6.5695 10.2655H7.42C10.423 10.2655 11.2455 7.889 11.2455 5.558C11.2455 3.227 10.227 1.2075 7.42 1.2075H5.7645L5.754 17.0765C5.754 18.494 6.2195 19.593 7.0805 20.5275H0C0.861 19.593 1.3265 18.4975 1.3265 17.0765H1.3335V3.8955C1.3335 2.478 0.867999 1.379 0.00699883 0.4445H9.4955C13.7165 0.4445 15.883 2.716 15.883 5.5545C15.883 8.393 14.2695 10.899 9.9575 10.584C13.573 11.0215 15.043 17.388 19.145 20.594H19.1415ZM51.002 16.079L46.466 9.0335C47.9185 7.007 51.4605 2.639 54.425 0.448H47.796C48.7515 2.6005 47.488 5.7925 45.906 8.162L43.6975 4.704C42.665 3.0555 42.434 1.6695 43.092 0.448L34.384 0.455C34.384 0.455 36.3475 1.442 38.577 4.9035L42.5635 11.0915C41.167 13.069 36.9355 18.277 33.8905 20.5275H40.684C39.487 17.892 41.1215 14.5285 43.1655 12.0225L45.885 16.275C46.9175 17.9235 47.1485 19.3095 46.4905 20.531H54.8345V20.524C53.4555 19.6035 52.5 18.347 51.0055 16.0755L51.002 16.079ZM27.027 21C20.979 21 16.8805 16.4885 16.8805 10.5C16.8805 4.5115 20.979 0 27.027 0C33.075 0 37.142 4.5115 37.142 10.5C37.142 16.4885 33.0435 21 27.027 21ZM32.4275 10.5C32.4275 4.9245 30.3275 0.7665 27.0235 0.7665C23.7195 0.7665 21.602 4.9245 21.602 10.5C21.602 16.0755 23.6915 20.2335 27.0235 20.2335C30.3555 20.2335 32.4275 16.0755 32.4275 10.5Z"/>
  </g>
</svg>
